<?xml version="1.0" encoding="UTF-8" standalone="no"?>
<!-- Generator: Adobe Illustrator 15.0.0, SVG Export Plug-In . SVG Version: 6.00 Build 0)  -->

<svg
   xmlns:dc="http://purl.org/dc/elements/1.1/"
   xmlns:cc="http://creativecommons.org/ns#"
   xmlns:rdf="http://www.w3.org/1999/02/22-rdf-syntax-ns#"
   xmlns:svg="http://www.w3.org/2000/svg"
   xmlns="http://www.w3.org/2000/svg"
   xmlns:sodipodi="http://sodipodi.sourceforge.net/DTD/sodipodi-0.dtd"
   xmlns:inkscape="http://www.inkscape.org/namespaces/inkscape"
   version="1.1"
   id="Layer_1"
   x="0px"
   y="0px"
   width="202"
   height="202"
   viewBox="0 0 202 202"
   enable-background="new 0 0 800 485"
   xml:space="preserve"
   inkscape:version="0.48.1 "
   sodipodi:docname="right-panel-logo - Copy.svg"><defs
   id="defs10"><filter
     id="filter2987"
     inkscape:label="Inner Shadow"
     inkscape:menu="Shadows and Glows"
     inkscape:menu-tooltip="Adds a colorizable drop shadow inside"
     color-interpolation-filters="sRGB"><feGaussianBlur
       id="feGaussianBlur2989"
       stdDeviation="3"
       result="result8" /><feOffset
       id="feOffset2991"
       dx="0"
       dy="0"
       result="result11" /><feComposite
       in2="result11"
       id="feComposite2993"
       result="result6"
       in="SourceGraphic"
       operator="in" /><feFlood
       id="feFlood2995"
       result="result10"
       in="result6"
       flood-opacity="1"
       flood-color="rgb(0,0,0)" /><feBlend
       in2="result10"
       id="feBlend2997"
       mode="normal"
       in="result6"
       result="result12" /><feComposite
       in2="SourceGraphic"
       id="feComposite2999"
       result="result2"
       operator="in" /></filter><filter
     id="filter3979"
     inkscape:label="Drop shadow"
     width="1.5"
     height="1.5"
     x="-.25"
     y="-.25"><feGaussianBlur
       id="feGaussianBlur3981"
       in="SourceAlpha"
       stdDeviation="2.5"
       result="blur" /><feColorMatrix
       id="feColorMatrix3983"
       result="bluralpha"
       type="matrix"
       values="1 0 0 0 0 0 1 0 0 0 0 0 1 0 0 0 0 0 0.8 0 " /><feOffset
       id="feOffset3985"
       in="bluralpha"
       dx="0"
       dy="0"
       result="offsetBlur" /><feMerge
       id="feMerge3987"><feMergeNode
         id="feMergeNode3989"
         in="offsetBlur" /><feMergeNode
         id="feMergeNode3991"
         in="SourceGraphic" /></feMerge></filter></defs>
   <metadata
   id="metadata150"><rdf:RDF><cc:Work
       rdf:about=""><dc:format>image/svg+xml</dc:format><dc:type
         rdf:resource="http://purl.org/dc/dcmitype/StillImage" /></cc:Work></rdf:RDF></metadata>
   <sodipodi:namedview
   pagecolor="#ffffff"
   bordercolor="#666666"
   borderopacity="1"
   objecttolerance="10"
   gridtolerance="10"
   guidetolerance="10"
   inkscape:pageopacity="0"
   inkscape:pageshadow="2"
   inkscape:window-width="1846"
   inkscape:window-height="1058"
   id="namedview148"
   showgrid="false"
   inkscape:zoom="2.4"
   inkscape:cx="-11.311303"
   inkscape:cy="83.572051"
   inkscape:window-x="1272"
   inkscape:window-y="-8"
   inkscape:window-maximized="1"
   inkscape:current-layer="Layer_1" />
<path
   d="m 1.0000029,164.26248 c 0,20.29358 16.3358261,36.73751 36.4838381,36.73751 H 164.51276 C 184.66758,200.99999 201,184.55606 201,164.26248 V 37.737516 C 201,17.451938 184.66758,0.99999908 164.51276,0.99999908 H 37.483841 C 17.335829,0.99999908 1.0000029,17.451938 1.0000029,37.737516 V 164.26248 z"
   id="path22"
   style="fill:#ededed;fill-opacity:1;stroke:#e4e4e4;stroke-width:1.50000000000000000;stroke-miterlimit:4;stroke-opacity:1;stroke-dasharray:none;filter:url(#filter2987)"
   inkscape:connector-curvature="0" /><path
   inkscape:connector-curvature="0"
   style="fill:none;fill-opacity:1;stroke:#e4e4e4;stroke-width:1.50000000000000000;stroke-miterlimit:4;stroke-opacity:0.12156863;stroke-dasharray:none;filter:url(#filter2987)"
   id="path3803"
   d="m 1.0000029,164.26248 c 0,20.29358 16.3358261,36.73751 36.4838381,36.73751 H 164.51276 C 184.66758,200.99999 201,184.55606 201,164.26248 V 37.737516 C 201,17.451938 184.66758,0.99999908 164.51276,0.99999908 H 37.483841 C 17.335829,0.99999908 1.0000029,17.451938 1.0000029,37.737516 V 164.26248 z" /><g
   id="g3805"
   style="filter:url(#filter3979)"><path
     style="fill:#ffffff;fill-rule:evenodd;stroke:#e4e4e4;stroke-width:1;stroke-miterlimit:4;stroke-opacity:1;stroke-dasharray:none"
     inkscape:connector-curvature="0"
     id="path69"
     d="m 30.620545,110.25071 c 0,0 -8.101461,-3.03878 -7.657312,-10.02327 0.465731,-7.417959 7.828837,-9.719057 7.828837,-9.719057 l 13.800429,0.01372 c 0,0 3.745165,-0.473487 6.744023,-5.941455 0.70087,-1.276354 1.100718,-3.316692 2.291173,-5.98034 1.339263,-2.98731 3.031801,-5.819079 2.503593,-4.976182 0.500945,-0.784569 2.361601,-3.869094 5.212788,-7.224671 1.042785,-1.23747 2.664895,-2.623619 3.783787,-3.809622 3.218093,-3.36244 7.49033,-6.037524 9.433908,-7.379069 4.022333,-2.760861 10.174536,-4.463811 10.174536,-4.463811 0,0 2.986363,12.083054 8.88071,17.234221 -0.418022,-0.369411 -2.529718,0.659907 -5.721685,2.33884 -3.680417,1.943124 -7.933344,5.255242 -10.341518,8.046982 -2.914799,3.381883 -2.246872,1.988872 -6.659964,10.069022 -0.366906,0.666769 -1.795908,3.789035 -1.964025,4.087537 -4.066634,7.355052 -6.396429,12.855045 -19.190422,17.131295 -6.028387,2.02204 -19.118858,0.59586 -19.118858,0.59586"
     clip-rule="evenodd" /><path
     style="fill:#ffffff;fill-rule:evenodd;stroke:#e4e4e4;stroke-width:1;stroke-miterlimit:4;stroke-opacity:1;stroke-dasharray:none"
     inkscape:connector-curvature="0"
     id="path81"
     d="m 110.75254,171.60838 c 0,0 -2.99886,8.14419 -9.93599,7.72332 -7.381282,-0.45976 -9.672455,-7.88573 -9.672455,-7.88573 l 0.0125,-13.89694 c 0,0 -0.455508,-3.75815 -5.893211,-6.77749 -1.274514,-0.71366 -3.295336,-1.10823 -5.934104,-2.31939 -2.979548,-1.34155 -5.778482,-3.04564 -4.942437,-2.48867 -0.784928,-0.53181 -3.86103,-2.40975 -7.169998,-5.26096 -1.248388,-1.07049 -2.630816,-2.68995 -3.790602,-3.81648 -3.345317,-3.25951 -6.010212,-7.54948 -7.322213,-9.48574 -2.754633,-4.08182 -4.440355,-10.26345 -4.440355,-10.26345 0,0 11.995434,-3.01362 17.104852,-8.93448 -0.358954,0.41401 0.6702,2.53326 2.342291,5.74702 1.917451,3.71927 5.212788,8.02182 7.974237,10.42471 3.383939,2.9347 1.975384,2.28051 10.012097,6.70544 0.649753,0.36941 3.764476,1.80131 4.054139,1.94999 7.310859,4.0944 12.766739,6.45954 17.033289,19.35347 1.99697,6.07298 0.56797,19.22538 0.56797,19.22538"
     clip-rule="evenodd" /><path
     style="fill:#ffffff;fill-rule:evenodd;stroke:#e4e4e4;stroke-width:1;stroke-miterlimit:4;stroke-opacity:1;stroke-dasharray:none"
     inkscape:connector-curvature="0"
     id="path93"
     d="m 171.37378,90.942984 c 0,0 8.10146,3.019334 7.66413,10.016416 -0.46346,7.41909 -7.83225,9.71905 -7.83225,9.71905 h -13.79134 c 0,0 -3.76447,0.45976 -6.75652,5.92887 -0.68837,1.27636 -1.10753,3.32356 -2.29117,5.96776 -1.35857,3.00675 -3.05111,5.83738 -2.48996,4.98876 -0.50208,0.80287 -2.37523,3.87482 -5.21279,7.23039 -1.06778,1.24434 -2.67739,2.63735 -3.80991,3.80963 -3.21696,3.33728 -7.4767,6.0318 -9.4271,7.36648 -4.02914,2.75286 -10.16772,4.48326 -10.16772,4.48326 0,0 -2.98636,-12.09564 -8.88071,-17.22164 0.41803,0.33739 2.52291,-0.6805 5.71487,-2.37087 3.69405,-1.93054 7.94698,-5.2621 10.35402,-8.02182 2.9023,-3.4139 2.25141,-2.00946 6.66678,-10.0816 0.36577,-0.67363 1.78227,-3.80962 1.95607,-4.10126 4.04164,-7.34705 6.39075,-12.842463 19.18361,-17.124427 6.04315,-2.020896 19.11999,-0.588999 19.11999,-0.588999"
     clip-rule="evenodd" /><path
     style="fill:#ffffff;fill-rule:evenodd;stroke:#e4e4e4;stroke-width:1;stroke-miterlimit:4;stroke-opacity:1;stroke-dasharray:none"
     inkscape:connector-curvature="0"
     id="path105"
     d="m 90.642014,30.53 c 0,0 2.92843,-8.183081 9.866696,-7.806808 7.38696,0.395716 9.75538,7.806808 9.75538,7.806808 l 0.10337,13.885505 c 0,0 0.48959,3.758156 5.95228,6.738604 1.28019,0.699937 3.31351,1.081928 5.97159,2.255351 2.96705,1.327821 5.79779,2.99303 4.95493,2.468077 0.78493,0.499791 3.86785,2.33884 7.23361,5.18319 1.24839,1.043043 2.63082,2.662504 3.80991,3.777599 3.37258,3.219479 6.06815,7.477426 7.41991,9.427412 2.7728,4.042934 4.51759,10.217701 4.51759,10.217701 0,0 -11.98861,3.103967 -17.02079,9.083163 0.34192,-0.414015 -0.70768,-2.533267 -2.38091,-5.727585 -1.96857,-3.698684 -5.29685,-7.949769 -8.07647,-10.341219 -3.41007,-2.888953 -2.00833,-2.254207 -10.07003,-6.627667 -0.66338,-0.362548 -3.80423,-1.755559 -4.0939,-1.924825 C 101.25502,64.920671 95.773015,62.609279 91.396272,49.779398 89.330013,43.715569 90.642014,30.53 90.642014,30.53"
     clip-rule="evenodd" /></g>
</svg>